# xmcd
#
# Track frame offsets:
# 150
# 14112
# 29692
# 44337
# 58017
# 72857
# 85400
# 100945
# 115170
# 127035
#
# Disc length: 1875 seconds
#
#
# Revision: 0
# Processed by: cddbd v1.5.2PL0 Copyright (c) Steve Scherf et al.
# Submitted via: FreeRIP 2.951 
#
DISCID=9007510a
DTITLE=Louis Armstrong - The Early Years
DYEAR=1998
DGENRE=Blues
TTITLE0=Wild Man Blues
TTITLE1=Basin Street Blues
TTITLE2=That's My Home
TTITLE3=Honey Don't You Love Me Anymore
TTITLE4=I've Got The World On a String
TTITLE5=Sweet Sue Just You
TTITLE6=High Society
TTITLE7=I Wonder Who
TTITLE8=Mahogany Hall Stomp
TTITLE9=I've Got A Right To Sing The Blues
EXTD=
EXTT0=
EXTT1=
EXTT2=
EXTT3=
EXTT4=
EXTT5=
EXTT6=
EXTT7=
EXTT8=
EXTT9=
PLAYORDER=
